#N canvas 229 143 1333 637 10;
#X obj 92 197 vsl 15 118 0 1 0 0 empty empty empty 0 -9 0 10 -262144
-1 -1 0 1;
#N canvas 584 88 450 300 gain 0;
#X obj 119 101 pack 0 20;
#X obj 119 133 line~;
#X obj 152 179 *~;
#X obj 118 51 inlet;
#X obj 173 136 inlet~;
#X obj 248 259 outlet~;
#X obj 151 210 env~;
#X obj 151 259 outlet;
#X obj 151 235 - 92;
#X connect 0 0 1 0;
#X connect 1 0 2 0;
#X connect 2 0 6 0;
#X connect 2 0 5 0;
#X connect 3 0 0 0;
#X connect 4 0 2 1;
#X connect 6 0 8 0;
#X connect 8 0 7 0;
#X restore 118 145 pd gain;
#X obj 118 197 vu 15 120 empty empty -1 -8 0 10 -66577 -1 1 0;
#X obj 253 197 vsl 15 118 0 1 0 0 empty empty empty 0 -9 0 10 -262144
-1 -1 0 1;
#N canvas 584 88 450 300 gain 0;
#X obj 119 101 pack 0 20;
#X obj 119 133 line~;
#X obj 152 179 *~;
#X obj 118 51 inlet;
#X obj 173 136 inlet~;
#X obj 248 259 outlet~;
#X obj 151 210 env~;
#X obj 151 259 outlet;
#X obj 151 235 - 92;
#X connect 0 0 1 0;
#X connect 1 0 2 0;
#X connect 2 0 6 0;
#X connect 2 0 5 0;
#X connect 3 0 0 0;
#X connect 4 0 2 1;
#X connect 6 0 8 0;
#X connect 8 0 7 0;
#X restore 278 162 pd gain;
#X obj 279 197 vu 15 120 empty empty -1 -8 0 10 -66577 -1 1 0;
#X obj 348 197 vsl 15 118 0 1 0 0 empty empty empty 0 -9 0 10 -262144
-1 -1 0 1;
#N canvas 584 88 450 300 gain 0;
#X obj 119 101 pack 0 20;
#X obj 119 133 line~;
#X obj 152 179 *~;
#X obj 118 51 inlet;
#X obj 173 136 inlet~;
#X obj 248 259 outlet~;
#X obj 151 210 env~;
#X obj 151 259 outlet;
#X obj 151 235 - 92;
#X connect 0 0 1 0;
#X connect 1 0 2 0;
#X connect 2 0 6 0;
#X connect 2 0 5 0;
#X connect 3 0 0 0;
#X connect 4 0 2 1;
#X connect 6 0 8 0;
#X connect 8 0 7 0;
#X restore 373 162 pd gain;
#X obj 374 197 vu 15 120 empty empty -1 -8 0 10 -66577 -1 1 0;
#X obj 439 197 vsl 15 118 0 1 0 0 empty empty empty 0 -9 0 10 -262144
-1 -1 0 1;
#N canvas 584 88 450 300 gain 0;
#X obj 119 101 pack 0 20;
#X obj 119 133 line~;
#X obj 152 179 *~;
#X obj 118 51 inlet;
#X obj 173 136 inlet~;
#X obj 248 259 outlet~;
#X obj 151 210 env~;
#X obj 151 259 outlet;
#X obj 151 235 - 92;
#X connect 0 0 1 0;
#X connect 1 0 2 0;
#X connect 2 0 6 0;
#X connect 2 0 5 0;
#X connect 3 0 0 0;
#X connect 4 0 2 1;
#X connect 6 0 8 0;
#X connect 8 0 7 0;
#X restore 464 162 pd gain;
#X obj 465 197 vu 15 120 empty empty -1 -8 0 10 -66577 -1 1 0;
#X obj 530 197 vsl 15 118 0 1 0 0 empty empty empty 0 -9 0 10 -262144
-1 -1 0 1;
#N canvas 584 88 450 300 gain 0;
#X obj 119 101 pack 0 20;
#X obj 119 133 line~;
#X obj 152 179 *~;
#X obj 118 51 inlet;
#X obj 173 136 inlet~;
#X obj 248 259 outlet~;
#X obj 151 210 env~;
#X obj 151 259 outlet;
#X obj 151 235 - 92;
#X connect 0 0 1 0;
#X connect 1 0 2 0;
#X connect 2 0 6 0;
#X connect 2 0 5 0;
#X connect 3 0 0 0;
#X connect 4 0 2 1;
#X connect 6 0 8 0;
#X connect 8 0 7 0;
#X restore 555 162 pd gain;
#X obj 556 197 vu 15 120 empty empty -1 -8 0 10 -66577 -1 1 0;
#X obj 253 482 vsl 15 118 0 1 0 0 empty empty empty 0 -9 0 10 -262144
-1 -1 0 1;
#N canvas 584 88 450 300 gain 0;
#X obj 119 101 pack 0 20;
#X obj 119 133 line~;
#X obj 152 179 *~;
#X obj 118 51 inlet;
#X obj 173 136 inlet~;
#X obj 248 259 outlet~;
#X obj 151 210 env~;
#X obj 151 259 outlet;
#X obj 151 235 - 92;
#X connect 0 0 1 0;
#X connect 1 0 2 0;
#X connect 2 0 6 0;
#X connect 2 0 5 0;
#X connect 3 0 0 0;
#X connect 4 0 2 1;
#X connect 6 0 8 0;
#X connect 8 0 7 0;
#X restore 278 447 pd gain;
#X obj 279 482 vu 15 120 empty empty -1 -8 0 10 -66577 -1 1 0;
#X obj 348 482 vsl 15 118 0 1 0 0 empty empty empty 0 -9 0 10 -262144
-1 -1 0 1;
#N canvas 584 88 450 300 gain 0;
#X obj 119 101 pack 0 20;
#X obj 119 133 line~;
#X obj 152 179 *~;
#X obj 118 51 inlet;
#X obj 173 136 inlet~;
#X obj 248 259 outlet~;
#X obj 151 210 env~;
#X obj 151 259 outlet;
#X obj 151 235 - 92;
#X connect 0 0 1 0;
#X connect 1 0 2 0;
#X connect 2 0 6 0;
#X connect 2 0 5 0;
#X connect 3 0 0 0;
#X connect 4 0 2 1;
#X connect 6 0 8 0;
#X connect 8 0 7 0;
#X restore 373 447 pd gain;
#X obj 374 482 vu 15 120 empty empty -1 -8 0 10 -66577 -1 1 0;
#X obj 439 482 vsl 15 118 0 1 0 0 empty empty empty 0 -9 0 10 -262144
-1 -1 0 1;
#N canvas 584 88 450 300 gain 0;
#X obj 119 101 pack 0 20;
#X obj 119 133 line~;
#X obj 152 179 *~;
#X obj 118 51 inlet;
#X obj 173 136 inlet~;
#X obj 248 259 outlet~;
#X obj 151 210 env~;
#X obj 151 259 outlet;
#X obj 151 235 - 92;
#X connect 0 0 1 0;
#X connect 1 0 2 0;
#X connect 2 0 6 0;
#X connect 2 0 5 0;
#X connect 3 0 0 0;
#X connect 4 0 2 1;
#X connect 6 0 8 0;
#X connect 8 0 7 0;
#X restore 464 447 pd gain;
#X obj 465 482 vu 15 120 empty empty -1 -8 0 10 -66577 -1 1 0;
#X obj 530 482 vsl 15 118 0 1 0 0 empty empty empty 0 -9 0 10 -262144
-1 -1 0 1;
#N canvas 584 88 450 300 gain 0;
#X obj 119 101 pack 0 20;
#X obj 119 133 line~;
#X obj 152 179 *~;
#X obj 118 51 inlet;
#X obj 173 136 inlet~;
#X obj 248 259 outlet~;
#X obj 151 210 env~;
#X obj 151 259 outlet;
#X obj 151 235 - 92;
#X connect 0 0 1 0;
#X connect 1 0 2 0;
#X connect 2 0 6 0;
#X connect 2 0 5 0;
#X connect 3 0 0 0;
#X connect 4 0 2 1;
#X connect 6 0 8 0;
#X connect 8 0 7 0;
#X restore 555 447 pd gain;
#X obj 556 482 vu 15 120 empty empty -1 -8 0 10 -66577 -1 1 0;
#X obj 738 197 vsl 15 118 0 1 0 0 empty empty empty 0 -9 0 10 -262144
-1 -1 0 1;
#N canvas 584 88 450 300 gain 0;
#X obj 119 101 pack 0 20;
#X obj 119 133 line~;
#X obj 152 179 *~;
#X obj 118 51 inlet;
#X obj 173 136 inlet~;
#X obj 248 259 outlet~;
#X obj 151 210 env~;
#X obj 151 259 outlet;
#X obj 151 235 - 92;
#X connect 0 0 1 0;
#X connect 1 0 2 0;
#X connect 2 0 6 0;
#X connect 2 0 5 0;
#X connect 3 0 0 0;
#X connect 4 0 2 1;
#X connect 6 0 8 0;
#X connect 8 0 7 0;
#X restore 763 162 pd gain;
#X obj 764 197 vu 15 120 empty empty -1 -8 0 10 -66577 -1 1 0;
#X obj 833 197 vsl 15 118 0 1 0 0 empty empty empty 0 -9 0 10 -262144
-1 -1 0 1;
#N canvas 584 88 450 300 gain 0;
#X obj 119 101 pack 0 20;
#X obj 119 133 line~;
#X obj 152 179 *~;
#X obj 118 51 inlet;
#X obj 173 136 inlet~;
#X obj 248 259 outlet~;
#X obj 151 210 env~;
#X obj 151 259 outlet;
#X obj 151 235 - 92;
#X connect 0 0 1 0;
#X connect 1 0 2 0;
#X connect 2 0 6 0;
#X connect 2 0 5 0;
#X connect 3 0 0 0;
#X connect 4 0 2 1;
#X connect 6 0 8 0;
#X connect 8 0 7 0;
#X restore 858 162 pd gain;
#X obj 859 197 vu 15 120 empty empty -1 -8 0 10 -66577 -1 1 0;
#X obj 924 197 vsl 15 118 0 1 0 0 empty empty empty 0 -9 0 10 -262144
-1 -1 0 1;
#N canvas 584 88 450 300 gain 0;
#X obj 119 101 pack 0 20;
#X obj 119 133 line~;
#X obj 152 179 *~;
#X obj 118 51 inlet;
#X obj 173 136 inlet~;
#X obj 248 259 outlet~;
#X obj 151 210 env~;
#X obj 151 259 outlet;
#X obj 151 235 - 92;
#X connect 0 0 1 0;
#X connect 1 0 2 0;
#X connect 2 0 6 0;
#X connect 2 0 5 0;
#X connect 3 0 0 0;
#X connect 4 0 2 1;
#X connect 6 0 8 0;
#X connect 8 0 7 0;
#X restore 949 162 pd gain;
#X obj 950 197 vu 15 120 empty empty -1 -8 0 10 -66577 -1 1 0;
#X obj 1015 197 vsl 15 118 0 1 0 0 empty empty empty 0 -9 0 10 -262144
-1 -1 0 1;
#N canvas 584 88 450 300 gain 0;
#X obj 119 101 pack 0 20;
#X obj 119 133 line~;
#X obj 152 179 *~;
#X obj 118 51 inlet;
#X obj 173 136 inlet~;
#X obj 248 259 outlet~;
#X obj 151 210 env~;
#X obj 151 259 outlet;
#X obj 151 235 - 92;
#X connect 0 0 1 0;
#X connect 1 0 2 0;
#X connect 2 0 6 0;
#X connect 2 0 5 0;
#X connect 3 0 0 0;
#X connect 4 0 2 1;
#X connect 6 0 8 0;
#X connect 8 0 7 0;
#X restore 1040 162 pd gain;
#X obj 1041 197 vu 15 120 empty empty -1 -8 0 10 -66577 -1 1 0;
#X obj 749 482 vsl 15 118 0 1 0 0 empty empty empty 0 -9 0 10 -262144
-1 -1 0 1;
#N canvas 584 88 450 300 gain 0;
#X obj 119 101 pack 0 20;
#X obj 119 133 line~;
#X obj 152 179 *~;
#X obj 118 51 inlet;
#X obj 173 136 inlet~;
#X obj 248 259 outlet~;
#X obj 151 210 env~;
#X obj 151 259 outlet;
#X obj 151 235 - 92;
#X connect 0 0 1 0;
#X connect 1 0 2 0;
#X connect 2 0 6 0;
#X connect 2 0 5 0;
#X connect 3 0 0 0;
#X connect 4 0 2 1;
#X connect 6 0 8 0;
#X connect 8 0 7 0;
#X restore 774 447 pd gain;
#X obj 775 482 vu 15 120 empty empty -1 -8 0 10 -66577 -1 1 0;
#X obj 844 482 vsl 15 118 0 1 0 0 empty empty empty 0 -9 0 10 -262144
-1 -1 0 1;
#N canvas 584 88 450 300 gain 0;
#X obj 119 101 pack 0 20;
#X obj 119 133 line~;
#X obj 152 179 *~;
#X obj 118 51 inlet;
#X obj 173 136 inlet~;
#X obj 248 259 outlet~;
#X obj 151 210 env~;
#X obj 151 259 outlet;
#X obj 151 235 - 92;
#X connect 0 0 1 0;
#X connect 1 0 2 0;
#X connect 2 0 6 0;
#X connect 2 0 5 0;
#X connect 3 0 0 0;
#X connect 4 0 2 1;
#X connect 6 0 8 0;
#X connect 8 0 7 0;
#X restore 869 447 pd gain;
#X obj 870 482 vu 15 120 empty empty -1 -8 0 10 -66577 -1 1 0;
#X obj 935 482 vsl 15 118 0 1 0 0 empty empty empty 0 -9 0 10 -262144
-1 -1 0 1;
#N canvas 584 88 450 300 gain 0;
#X obj 119 101 pack 0 20;
#X obj 119 133 line~;
#X obj 152 179 *~;
#X obj 118 51 inlet;
#X obj 173 136 inlet~;
#X obj 248 259 outlet~;
#X obj 151 210 env~;
#X obj 151 259 outlet;
#X obj 151 235 - 92;
#X connect 0 0 1 0;
#X connect 1 0 2 0;
#X connect 2 0 6 0;
#X connect 2 0 5 0;
#X connect 3 0 0 0;
#X connect 4 0 2 1;
#X connect 6 0 8 0;
#X connect 8 0 7 0;
#X restore 960 447 pd gain;
#X obj 961 482 vu 15 120 empty empty -1 -8 0 10 -66577 -1 1 0;
#X obj 1026 482 vsl 15 118 0 1 0 0 empty empty empty 0 -9 0 10 -262144
-1 -1 0 1;
#N canvas 584 88 450 300 gain 0;
#X obj 119 101 pack 0 20;
#X obj 119 133 line~;
#X obj 152 179 *~;
#X obj 118 51 inlet;
#X obj 173 136 inlet~;
#X obj 248 259 outlet~;
#X obj 151 210 env~;
#X obj 151 259 outlet;
#X obj 151 235 - 92;
#X connect 0 0 1 0;
#X connect 1 0 2 0;
#X connect 2 0 6 0;
#X connect 2 0 5 0;
#X connect 3 0 0 0;
#X connect 4 0 2 1;
#X connect 6 0 8 0;
#X connect 8 0 7 0;
#X restore 1051 447 pd gain;
#X obj 1052 482 vu 15 120 empty empty -1 -8 0 10 -66577 -1 1 0;
#X obj 158 107 adc~ 1;
#N canvas 45 506 747 300 amp_trasp 0;
#X obj 45 14 inlet~;
#X obj 227 188 outlet~;
#X obj 227 162 lop~ 20000;
#X floatatom 284 141 5 0 0 0 - - -;
#X obj 358 188 outlet~;
#X obj 358 162 lop~ 20000;
#X floatatom 415 141 5 0 0 0 - - -;
#X obj 491 188 outlet~;
#X obj 491 162 lop~ 20000;
#X floatatom 548 141 5 0 0 0 - - -;
#X obj 615 188 outlet~;
#X obj 615 162 lop~ 20000;
#X floatatom 671 141 5 0 0 0 - - -;
#X obj 227 98 delread~ dist_1 0;
#X floatatom 227 72 5 0 0 0 - - -;
#X floatatom 358 72 5 0 0 0 - - -;
#X floatatom 491 75 5 0 0 0 - - -;
#X floatatom 615 73 5 0 0 0 - - -;
#X obj 358 98 delread~ dist_2 0;
#X obj 491 98 delread~ dist_3 0;
#X obj 615 98 delread~ dist_4 0;
#X obj 45 38 delwrite~ dist_1 1000;
#X obj 45 62 delwrite~ dist_2 1000;
#X obj 45 86 delwrite~ dist_3 1000;
#X obj 45 110 delwrite~ dist_4 1000;
#X obj 227 50 / 0.34;
#X obj 358 50 / 0.34;
#X obj 490 52 / 0.34;
#X obj 614 50 / 0.34;
#X obj 612 27 inlet;
#X obj 490 27 inlet;
#X obj 358 27 inlet;
#X obj 227 27 inlet;
#X obj 284 120 inlet;
#X obj 416 120 inlet;
#X obj 548 119 inlet;
#X obj 671 120 inlet;
#X connect 0 0 21 0;
#X connect 0 0 22 0;
#X connect 0 0 23 0;
#X connect 0 0 24 0;
#X connect 2 0 1 0;
#X connect 3 0 2 1;
#X connect 5 0 4 0;
#X connect 6 0 5 1;
#X connect 8 0 7 0;
#X connect 9 0 8 1;
#X connect 11 0 10 0;
#X connect 12 0 11 1;
#X connect 13 0 2 0;
#X connect 14 0 13 0;
#X connect 15 0 18 0;
#X connect 16 0 19 0;
#X connect 17 0 20 0;
#X connect 18 0 5 0;
#X connect 19 0 8 0;
#X connect 20 0 11 0;
#X connect 25 0 14 0;
#X connect 26 0 15 0;
#X connect 27 0 16 0;
#X connect 28 0 17 0;
#X connect 29 0 28 0;
#X connect 30 0 27 0;
#X connect 31 0 26 0;
#X connect 32 0 25 0;
#X connect 33 0 3 0;
#X connect 34 0 6 0;
#X connect 35 0 9 0;
#X connect 36 0 12 0;
#X coords 0 0 1 1 85 60 0;
#X restore 315 115 pd amp_trasp;
#X f 47;
#X obj 157 167 send~ in;
#X obj 266 81 receive~ in;
#X obj 763 91 receive~ in;
#N canvas 135 73 1016 609 pgm_1 0;
#X obj 103 74 inlet~;
#X obj 99 330 outlet~;
#X obj 231 330 outlet~;
#X obj 392 325 outlet~;
#X obj 532 324 outlet~;
#X obj 103 137 delwrite~ ch1 5000;
#X obj 102 169 delwrite~ ch2 7000;
#X obj 101 198 delwrite~ ch3 10000;
#X obj 100 233 delwrite~ ch4 15000;
#X obj 103 98 rev1~;
#X obj 99 300 delread~ ch1 5000;
#X obj 231 301 delread~ ch2 7000;
#X obj 392 298 delread~ ch3 10000;
#X obj 532 297 delread~ ch4 15000;
#X connect 0 0 9 0;
#X connect 9 0 5 0;
#X connect 9 0 6 0;
#X connect 9 0 7 0;
#X connect 9 0 8 0;
#X connect 10 0 1 0;
#X connect 11 0 2 0;
#X connect 12 0 3 0;
#X connect 13 0 4 0;
#X restore 802 116 pd pgm_1;
#X f 47;
#X obj 288 368 receive~ in;
#N canvas 135 73 1012 682 pgm_2 0;
#X obj 58 135 inlet~;
#X obj 86 187 rzero_rev~;
#X obj 86 214 rpole~;
#X obj 161 85 phasor~ 0.3;
#X obj 162 113 expr~ abs($v1-0.5);
#X obj 164 143 expr~ 0.97 - 0.6*$v1*$v1;
#X obj 82 249 rzero_rev~;
#X obj 82 276 rpole~;
#X obj 83 311 rzero_rev~;
#X obj 83 338 rpole~;
#X obj 82 361 rzero_rev~;
#X obj 82 388 rpole~;
#X obj 58 441 +~;
#X obj 194 451 delwrite~ sample 1;
#X obj 330 200 delread~ sample 1;
#X obj 319 249 +~;
#X obj 194 425 *~;
#X floatatom 209 393 5 0 0 0 - - -;
#X text 206 375 feedback;
#X floatatom 161 57 5 0 0 0 - - -;
#X text 156 36 speed;
#X obj 119 30 inlet;
#X obj 196 350 inlet;
#X obj 58 567 outlet~;
#X obj 141 565 outlet~;
#X obj 224 566 outlet~;
#X obj 313 566 outlet~;
#X connect 0 0 15 0;
#X connect 0 0 12 0;
#X connect 1 0 2 0;
#X connect 2 0 6 0;
#X connect 3 0 4 0;
#X connect 4 0 5 0;
#X connect 5 0 1 1;
#X connect 5 0 2 1;
#X connect 5 0 6 1;
#X connect 5 0 7 1;
#X connect 5 0 8 1;
#X connect 5 0 9 1;
#X connect 5 0 10 1;
#X connect 5 0 11 1;
#X connect 6 0 7 0;
#X connect 7 0 8 0;
#X connect 8 0 9 0;
#X connect 9 0 10 0;
#X connect 10 0 11 0;
#X connect 11 0 12 1;
#X connect 11 0 16 0;
#X connect 14 0 15 1;
#X connect 15 0 1 0;
#X connect 16 0 13 0;
#X connect 17 0 16 1;
#X connect 19 0 3 0;
#X connect 21 0 19 0;
#X connect 22 0 17 0;
#X restore 318 399 pd pgm_2;
#X f 46;
#X obj 771 380 receive~ in;
#N canvas 135 73 450 300 pgm_3 0;
#X obj 103 74 inlet~;
#X obj 105 118 rev1~;
#X obj 105 158 outlet~;
#X obj 174 160 outlet~;
#X connect 0 0 1 0;
#X connect 1 0 2 0;
#X connect 1 0 3 0;
#X restore 812 413 pd pgm_3;
#X f 16;
#X obj 999 391 receive~ in;
#N canvas 135 73 450 300 pgm_4 0;
#X obj 103 74 inlet~;
#X obj 103 99 lop~ 566;
#X obj 103 126 lop~ 566;
#X obj 101 156 lop~ 566;
#X obj 101 183 lop~ 566;
#X obj 100 218 rev1~;
#X obj 80 259 outlet~;
#X obj 148 261 outlet~;
#X connect 0 0 1 0;
#X connect 1 0 2 0;
#X connect 2 0 3 0;
#X connect 3 0 4 0;
#X connect 4 0 5 0;
#X connect 5 0 6 0;
#X connect 5 0 7 0;
#X restore 999 417 pd pgm_4;
#X f 16;
#X floatatom 348 48 5 0 0 0 - - -;
#X floatatom 384 67 5 0 0 0 - - -;
#X text 346 26 Metri;
#X text 386 47 lpf;
#X floatatom 419 48 5 0 0 0 - - -;
#X floatatom 453 67 5 0 0 0 - - -;
#X text 417 24 Metri;
#X text 457 47 lpf;
#X floatatom 489 48 5 0 0 0 - - -;
#X floatatom 524 68 5 0 0 0 - - -;
#X text 489 24 Metri;
#X text 525 45 lpf;
#X floatatom 559 48 5 0 0 0 - - -;
#X floatatom 594 68 5 0 0 0 - - -;
#X text 560 25 Metri;
#X text 595 46 lpf;
#X floatatom 452 372 5 0 0 0 - - -;
#X floatatom 588 373 5 0 0 0 - - -;
#X text 451 347 speed;
#X text 584 349 feedback;
#X connect 0 0 1 0;
#X connect 1 0 2 0;
#X connect 1 1 53 0;
#X connect 3 0 4 0;
#X connect 4 0 5 0;
#X connect 6 0 7 0;
#X connect 7 0 8 0;
#X connect 9 0 10 0;
#X connect 10 0 11 0;
#X connect 12 0 13 0;
#X connect 13 0 14 0;
#X connect 15 0 16 0;
#X connect 16 0 17 0;
#X connect 18 0 19 0;
#X connect 19 0 20 0;
#X connect 21 0 22 0;
#X connect 22 0 23 0;
#X connect 24 0 25 0;
#X connect 25 0 26 0;
#X connect 27 0 28 0;
#X connect 28 0 29 0;
#X connect 30 0 31 0;
#X connect 31 0 32 0;
#X connect 33 0 34 0;
#X connect 34 0 35 0;
#X connect 36 0 37 0;
#X connect 37 0 38 0;
#X connect 39 0 40 0;
#X connect 40 0 41 0;
#X connect 42 0 43 0;
#X connect 43 0 44 0;
#X connect 45 0 46 0;
#X connect 46 0 47 0;
#X connect 48 0 49 0;
#X connect 49 0 50 0;
#X connect 51 0 1 1;
#X connect 52 0 4 1;
#X connect 52 1 7 1;
#X connect 52 2 10 1;
#X connect 52 3 13 1;
#X connect 54 0 52 0;
#X connect 55 0 56 0;
#X connect 56 0 28 1;
#X connect 56 1 31 1;
#X connect 56 2 34 1;
#X connect 56 3 37 1;
#X connect 57 0 58 0;
#X connect 58 0 16 1;
#X connect 58 1 19 1;
#X connect 58 2 22 1;
#X connect 58 3 25 1;
#X connect 59 0 60 0;
#X connect 60 0 40 1;
#X connect 60 1 43 1;
#X connect 61 0 62 0;
#X connect 62 0 46 1;
#X connect 62 1 49 1;
#X connect 63 0 52 1;
#X connect 64 0 52 2;
#X connect 67 0 52 3;
#X connect 68 0 52 4;
#X connect 71 0 52 5;
#X connect 72 0 52 6;
#X connect 75 0 52 7;
#X connect 76 0 52 8;
#X connect 79 0 58 1;
#X connect 80 0 58 2;
